<svg width="46" height="47" viewBox="0 0 46 47" fill="none" xmlns="http://www.w3.org/2000/svg">
<g id="Vector">
<path d="M28.2536 9.60087C30.3111 10.0106 32.202 11.0378 33.6842 12.5508C35.1665 14.0639 36.1727 15.994 36.5742 18.0942M28.2536 1C32.5282 1.48474 36.5143 3.43872 39.5574 6.54113C42.6005 9.64353 44.5197 13.71 45 18.0727M42.8935 35.2315V41.6821C42.8959 42.2809 42.7757 42.8737 42.5407 43.4224C42.3057 43.9711 41.961 44.4636 41.5287 44.8684C41.0964 45.2733 40.5861 45.5815 40.0303 45.7733C39.4746 45.9652 38.8857 46.0364 38.3015 45.9825C31.8195 45.2636 25.5932 43.0027 20.1227 39.3814C15.0331 36.0801 10.7181 31.6754 7.48393 26.4801C3.92397 20.8706 1.70853 14.484 1.0171 7.83769C0.964458 7.24308 1.03369 6.64381 1.22037 6.07801C1.40706 5.51221 1.70711 4.99229 2.10143 4.55134C2.49575 4.1104 2.9757 3.7581 3.51071 3.51688C4.04572 3.27565 4.62408 3.15078 5.20896 3.15022H11.5283C12.5506 3.13995 13.5417 3.50947 14.3168 4.18992C15.0919 4.87036 15.5982 5.8153 15.7413 6.84859C16.008 8.91294 16.5026 10.9399 17.2158 12.8907C17.4992 13.6603 17.5605 14.4967 17.3925 15.3008C17.2245 16.1049 16.8342 16.843 16.2679 17.4277L13.5927 20.1584C16.5913 25.5416 20.9578 29.9988 26.2314 33.0597L28.9066 30.329C29.4794 29.7509 30.2024 29.3524 30.9902 29.1809C31.7779 29.0095 32.5973 29.0721 33.3513 29.3614C35.2624 30.0893 37.2481 30.5943 39.2704 30.8665C40.2937 31.0139 41.2282 31.54 41.8962 32.3448C42.5642 33.1496 42.9192 34.1769 42.8935 35.2315Z" fill="#D9D9D9"/>
<path d="M28.2536 9.60087C30.3111 10.0106 32.202 11.0378 33.6842 12.5508C35.1665 14.0639 36.1727 15.994 36.5742 18.0942M28.2536 1C32.5282 1.48474 36.5143 3.43872 39.5574 6.54113C42.6005 9.64353 44.5197 13.71 45 18.0727M42.8935 35.2315V41.6821C42.8959 42.2809 42.7758 42.8737 42.5407 43.4224C42.3057 43.9711 41.961 44.4636 41.5287 44.8684C41.0964 45.2733 40.5861 45.5815 40.0303 45.7733C39.4746 45.9652 38.8857 46.0364 38.3015 45.9825C31.8195 45.2636 25.5932 43.0027 20.1227 39.3814C15.0331 36.0801 10.7181 31.6754 7.48393 26.4801C3.92397 20.8706 1.70853 14.484 1.0171 7.83769C0.964458 7.24308 1.03369 6.64381 1.22037 6.07801C1.40706 5.51221 1.70711 4.99229 2.10143 4.55134C2.49575 4.1104 2.97569 3.7581 3.51071 3.51688C4.04572 3.27565 4.62408 3.15078 5.20896 3.15022H11.5283C12.5506 3.13995 13.5417 3.50947 14.3168 4.18992C15.0919 4.87036 15.5982 5.8153 15.7413 6.84859C16.008 8.91294 16.5026 10.9399 17.2158 12.8907C17.4992 13.6603 17.5605 14.4967 17.3925 15.3008C17.2245 16.1049 16.8342 16.843 16.2679 17.4277L13.5927 20.1584C16.5913 25.5416 20.9578 29.9988 26.2314 33.0597L28.9066 30.329C29.4794 29.7508 30.2024 29.3524 30.9902 29.1809C31.7779 29.0095 32.5973 29.0721 33.3513 29.3614C35.2624 30.0893 37.2481 30.5943 39.2704 30.8665C40.2937 31.0139 41.2282 31.54 41.8962 32.3448C42.5642 33.1496 42.9192 34.1769 42.8935 35.2315Z" stroke="white" stroke-width="2" stroke-linecap="round" stroke-linejoin="round"/>
</g>
</svg>
