<svg width="53" height="60" viewBox="0 0 53 60" fill="none" xmlns="http://www.w3.org/2000/svg">
<g id="Group 7">
<path id="Vector" d="M52 24.7273C52 43.1818 26.5 59 26.5 59C26.5 59 1 43.1818 1 24.7273C1 18.4344 3.6866 12.3993 8.46878 7.94956C13.251 3.49983 19.737 1 26.5 1C33.263 1 39.749 3.49983 44.5312 7.94956C49.3134 12.3993 52 18.4344 52 24.7273Z" fill="white" stroke="black" stroke-width="2" stroke-linecap="round" stroke-linejoin="round"/>
<path id="Vector_2" d="M25.5 30C31.299 30 36 25.7467 36 20.5C36 15.2533 31.299 11 25.5 11C19.701 11 15 15.2533 15 20.5C15 25.7467 19.701 30 25.5 30Z" fill="black"/>
</g>
</svg>
